<svg width="45" height="39" viewBox="0 0 45 39" fill="none" xmlns="http://www.w3.org/2000/svg">
<path d="M32.8642 0C28.4658 0 24.6261 2.31094 22.5 5.76656C20.3735 2.31103 16.5338 0 12.1358 0C5.42949 0 0 5.35153 0 11.9628C0 26.1003 22.5 39 22.5 39C22.5 39 45 26.1003 45 11.9628C45 5.35178 39.5708 0 32.8642 0ZM23.9371 10.553C24.438 8.27794 26.1291 6.71106 27.7113 7.05425C29.2935 7.39056 30.1716 9.51546 29.671 11.7836C29.1701 14.0586 27.479 15.6255 25.8969 15.2823C24.3143 14.946 23.4362 12.8283 23.9371 10.553ZM17.2812 7.05459C18.8634 6.71829 20.5545 8.28519 21.0554 10.5533C21.5563 12.8214 20.6778 14.9463 19.0956 15.2826C17.5134 15.6189 15.8223 14.052 15.3214 11.7839C14.8209 9.50854 15.699 7.39087 17.2812 7.05459ZM9.91427 18.3083C9.05047 16.4765 9.39166 14.5164 10.6691 13.9297C11.9466 13.3504 13.6811 14.3589 14.5449 16.1978C15.4087 18.0296 15.0675 19.9897 13.7901 20.5764C12.5129 21.163 10.7711 20.1399 9.91427 18.3083ZM30.5495 29.3191C30.1792 30.5283 28.6551 30.9433 27.6751 30.1347C26.9203 29.5194 26.0057 29.0042 24.8589 28.6538C23.3128 28.1814 21.6364 28.1887 20.0903 28.668C18.9652 29.0184 18.0727 29.5267 17.3323 30.1347C16.3452 30.943 14.8208 30.5284 14.4509 29.3192C13.4782 26.164 14.2621 22.601 16.7879 20.1036C19.9813 16.9556 25.0186 16.9556 28.2119 20.1036C30.7451 22.6006 31.5216 26.1636 30.5493 29.3192L30.5495 29.3191ZM35.0858 18.3083C34.222 20.14 32.4948 21.1558 31.21 20.5764C29.9252 19.997 29.5914 18.0365 30.4552 16.1978C31.319 14.3661 33.0461 13.3503 34.331 13.9297C35.6085 14.5164 35.9493 16.4696 35.0858 18.3083Z" fill="#FF0000"/>
</svg>
