<svg width="55" height="59" viewBox="0 0 55 59" fill="none" xmlns="http://www.w3.org/2000/svg">
<path d="M53.2746 20.6657C54.8108 13.1795 54.0418 5.69286 53.2746 1.66287C52.5075 -2.36838 45.4027 3.77435 42.1408 8.18967C38.8794 12.6036 27.3608 11.6446 27.3608 11.6446C27.3608 11.6446 15.8432 12.6044 12.5795 8.18967C9.31723 3.77446 2.21388 -2.36826 1.44711 1.66253C0.678155 5.69286 -0.089516 13.1801 1.44711 20.6653C1.44711 20.6653 -1.09501 34.2959 0.559401 39.6692C2.20845 45.0251 14.8611 57.2438 27.2975 58.2751V58.2885C27.3181 58.2859 27.3387 58.2836 27.3611 58.2809C27.3818 58.2836 27.4024 58.2859 27.4239 58.2885V58.2751C39.8603 57.2449 52.5135 45.0254 54.162 39.6692C55.816 34.295 53.2752 20.6653 53.2752 20.6653L53.2746 20.6657ZM2.6514 0.9849C2.6514 0.9849 12.0403 7.01061 14.5624 19.7617L2.6514 0.9849ZM27.5426 57.438C27.5354 57.4394 27.5291 57.4398 27.522 57.4412H27.5157C27.5049 57.4425 27.4937 57.4425 27.483 57.4438C27.4431 57.4479 27.276 57.4479 27.2356 57.4438C27.2249 57.4425 27.2137 57.4425 27.2034 57.4412H27.1975C27.1904 57.4398 27.1841 57.4394 27.1765 57.438C20.5892 56.7623 16.0262 53.0708 16.0262 53.0708C16.0262 53.0708 16.9408 47.0249 23.5316 48.1402C23.5316 48.1402 23.9349 43.8007 26.9211 43.8832C27.0726 43.8864 27.6466 43.8864 27.7994 43.8832C30.7843 43.8008 31.1889 48.1402 31.1889 48.1402C37.7788 47.0249 38.6944 53.0708 38.6944 53.0708C38.6935 53.0708 34.0652 56.7368 27.5426 57.438ZM40.2807 19.7617C42.8014 7.00981 52.1906 0.986048 52.1906 0.986048L40.2807 19.7617Z" fill="white"/>
<path d="M30.2201 53.2876C28.8834 53.1688 27.5211 52.3658 27.2536 51.0672C28.0508 50.9637 28.2036 49.6883 28.243 49.2242C28.2829 48.7402 29.3324 49.1978 29.3324 48.4185C29.3324 47.2006 27.6229 47.3861 27.2334 47.3699V47.3672C27.2334 47.3672 27.216 47.3686 27.1935 47.3686C27.1698 47.3686 27.1532 47.3672 27.1532 47.3672V47.3699C26.7652 47.3852 25.0538 47.2005 25.0538 48.4185C25.0538 49.1978 26.1037 48.7402 26.144 49.2242C26.183 49.6925 26.3381 50.9857 27.1505 51.0731C26.9502 52.4466 25.5463 53.2997 24.167 53.4212C24.1419 53.4239 24.1822 54.1194 24.167 54.1207C25.6883 53.9863 27.1729 53.0484 27.1949 51.3796C27.1962 51.3437 27.1949 51.3088 27.1953 51.2734C27.2357 52.9224 28.7078 53.8527 30.2196 53.9862C30.2048 53.9862 30.2456 53.2898 30.2201 53.2876Z" fill="white"/>
</svg>
