<svg width="55" height="58" viewBox="0 0 55 58" fill="none" xmlns="http://www.w3.org/2000/svg">
<path d="M53.2746 20.3147C54.8108 12.8285 54.0418 5.34188 53.2746 1.31189C52.5075 -2.71936 45.4027 3.42336 42.1408 7.83869C38.8794 12.2526 27.3608 11.2936 27.3608 11.2936C27.3608 11.2936 15.8432 12.2535 12.5795 7.83869C9.31723 3.42348 2.21388 -2.71924 1.44711 1.31155C0.678155 5.34188 -0.089516 12.8291 1.44711 20.3143C1.44711 20.3143 -1.09501 33.9449 0.559401 39.3183C2.20845 44.6741 14.8611 56.8928 27.2975 57.9241V57.9376C27.3181 57.9349 27.3387 57.9326 27.3611 57.9299C27.3818 57.9326 27.4024 57.9349 27.4239 57.9376V57.9241C39.8603 56.8939 52.5135 44.6744 54.162 39.3183C55.816 33.944 53.2752 20.3143 53.2752 20.3143L53.2746 20.3147ZM2.6514 0.633918C2.6514 0.633918 12.0403 6.65963 14.5624 19.4107L2.6514 0.633918ZM27.5426 57.087C27.5354 57.0884 27.5291 57.0888 27.522 57.0902H27.5157C27.5049 57.0915 27.4937 57.0915 27.483 57.0929C27.4431 57.0969 27.276 57.0969 27.2356 57.0929C27.2249 57.0915 27.2137 57.0915 27.2034 57.0902H27.1975C27.1904 57.0888 27.1841 57.0884 27.1765 57.087C20.5892 56.4113 16.0262 52.7198 16.0262 52.7198C16.0262 52.7198 16.9408 46.6739 23.5316 47.7893C23.5316 47.7893 23.9349 43.4498 26.9211 43.5322C27.0726 43.5354 27.6466 43.5354 27.7994 43.5322C30.7843 43.4498 31.1889 47.7893 31.1889 47.7893C37.7788 46.6739 38.6944 52.7198 38.6944 52.7198C38.6935 52.7198 34.0652 56.3858 27.5426 57.087ZM40.2807 19.4107C42.8014 6.65883 52.1906 0.635065 52.1906 0.635065L40.2807 19.4107Z" fill="black"/>
<path d="M30.2201 52.9366C28.8834 52.8178 27.5211 52.0148 27.2536 50.7162C28.0508 50.6127 28.2036 49.3373 28.243 48.8732C28.2829 48.3892 29.3324 48.8468 29.3324 48.0675C29.3324 46.8496 27.6229 47.0351 27.2334 47.0189V47.0162C27.2334 47.0162 27.216 47.0176 27.1935 47.0176C27.1698 47.0176 27.1532 47.0162 27.1532 47.0162V47.0189C26.7652 47.0342 25.0538 46.8495 25.0538 48.0675C25.0538 48.8468 26.1037 48.3892 26.144 48.8732C26.183 49.3415 26.3381 50.6347 27.1505 50.7221C26.9502 52.0956 25.5463 52.9487 24.167 53.0702C24.1419 53.0729 24.1822 53.7684 24.167 53.7697C25.6883 53.6353 27.1729 52.6974 27.1949 51.0286C27.1962 50.9927 27.1949 50.9578 27.1953 50.9224C27.2357 52.5714 28.7078 53.5017 30.2196 53.6352C30.2048 53.6352 30.2456 52.9388 30.2201 52.9366Z" fill="black"/>
</svg>
